<svg xmlns="http://www.w3.org/2000/svg" viewBox="0 0 3457.53 3457.53"><defs><style>.cls-1{fill:#fa0;}.cls-2{fill:#fff;stroke:#fff;stroke-miterlimit:10;}</style></defs><g id="Layer_2" data-name="Layer 2"><g id="Layer_1-2" data-name="Layer 1"><rect class="cls-1" width="3457.53" height="3457.53" rx="595.64"/><path class="cls-2" d="M990.26,1658.8H657.85v-23.55a80.58,80.58,0,0,0-80.58-80.58H455.67a80.59,80.59,0,0,0-80.59,80.58v611.31a80.59,80.59,0,0,0,80.59,80.59h121.6a80.58,80.58,0,0,0,80.58-80.59V2223H990.26a80.58,80.58,0,0,0,80.58-80.58V1739.38A80.58,80.58,0,0,0,990.26,1658.8Z"/><path class="cls-2" d="M3082.45,1296.43c0-449.73-337.82-820.54-773.54-872.57-8.94-3.42-91.62-6.26-105.3-6.26v.94l-934.08-.88A66.52,66.52,0,0,0,1202.94,484l-4.87,2273.13h-34a80.58,80.58,0,0,0-80.58,80.58v121.6a80.59,80.59,0,0,0,80.58,80.59h611.31a80.59,80.59,0,0,0,80.58-80.59v-121.6a80.58,80.58,0,0,0-80.58-80.58h-34V1029.37A67.41,67.41,0,0,1,1808.9,962h392.44c192.46,0,351.17,157.48,349.95,349.94-1.22,191-156.41,345.42-347.68,345.42v1.49h-62.49v-23.55a80.58,80.58,0,0,0-80.58-80.58H1938.93a80.58,80.58,0,0,0-80.58,80.58v611.31a80.59,80.59,0,0,0,80.58,80.59h121.61a80.59,80.59,0,0,0,80.58-80.59v-71.29h82.2V2175C2699.59,2164.55,3082.45,1775.21,3082.45,1296.43Z"/></g></g></svg>